<svg width="32" height="32" viewBox="0 0 32 32" fill="none" xmlns="http://www.w3.org/2000/svg">
<g clip-path="url(#clip0_558_17)">
<circle cx="16" cy="16" r="16" fill="black"/>
<path fill-rule="evenodd" clip-rule="evenodd" d="M15.9997 7.06266C13.7966 7.06266 13.5769 7.29167 12.4367 7.29167C11.4865 7.29167 8.63598 5 7.21076 5C5.78551 5 4.12274 5.825 4.12274 8.20833V10.9583C4.12562 11.6802 4.39179 13.893 5.43354 13.3016C4.20191 14.736 4.07748 16.4086 4.09441 18.0278C3.76269 18.1223 3.42424 18.2287 3.09578 18.3393C2.07792 18.6824 0.998448 19.1197 0.510796 19.4301C-0.00708353 19.7597 -0.155771 20.4406 0.178689 20.9509C0.513147 21.4613 1.20411 21.6078 1.72197 21.2782C1.95448 21.1303 2.79543 20.7656 3.81805 20.4211C3.93105 20.383 4.04426 20.3459 4.15689 20.3099C4.22575 20.9462 4.39666 21.527 4.65072 22.0562L4.61562 22.0743C4.00582 22.3919 3.43999 22.7565 3.0792 22.989C3.01676 23.0291 2.96047 23.0654 2.91117 23.0968C2.39329 23.4263 2.2446 24.1073 2.57906 24.6175C2.91352 25.1279 3.60448 25.2745 4.12236 24.9449C4.18356 24.9059 4.24878 24.8639 4.31761 24.8197C4.68275 24.5848 5.14962 24.2845 5.65863 24.0194C5.77798 23.9573 5.89284 23.9009 6.0027 23.8502C8.57797 26.2297 13.2014 27 15.9997 27C18.798 27 23.4215 26.2297 25.9967 23.8502C26.1066 23.9009 26.2213 23.9573 26.3407 24.0194C26.8497 24.2845 27.3166 24.5848 27.6817 24.8197C27.7506 24.8639 27.8158 24.9059 27.8769 24.9449C28.3949 25.2745 29.0858 25.1279 29.4203 24.6175C29.7548 24.1073 29.6061 23.4263 29.0882 23.0968C29.0389 23.0654 28.9826 23.0291 28.9201 22.989C28.5593 22.7565 27.9935 22.3919 27.3837 22.0743L27.3487 22.0562C27.6028 21.5268 27.7737 20.9462 27.8426 20.3098C27.9554 20.3457 28.0688 20.3828 28.1819 20.4211C29.2045 20.7656 30.0456 21.1303 30.2781 21.2782C30.7959 21.6078 31.4869 21.4613 31.8213 20.9509C32.1558 20.4406 32.0071 19.7597 31.4893 19.4301C31.0016 19.1197 29.9221 18.6824 28.9042 18.3393C28.5756 18.2286 28.237 18.1223 27.9051 18.0277C27.9219 16.4085 27.7975 14.736 26.5659 13.3016C27.6077 13.893 27.8738 11.6802 27.8768 10.9583V8.20849C27.8768 5.82516 26.2139 5.00016 24.7887 5.00016C23.3634 5.00016 20.513 7.29167 19.5628 7.29167C18.4226 7.29167 18.2031 7.06266 15.9997 7.06266ZM14.9942 20.5473C15.2958 20.4461 15.6516 20.4 15.9997 20.4C16.3479 20.4 16.7037 20.4461 17.0053 20.5473C17.1532 20.5968 17.3342 20.6751 17.4934 20.8016C17.6534 20.9284 17.8602 21.1635 17.8602 21.5C17.8602 21.8365 17.6534 22.0716 17.4934 22.1984C17.3342 22.3249 17.1532 22.4032 17.0053 22.4527C16.7037 22.5539 16.3479 22.6 15.9997 22.6C15.6516 22.6 15.2958 22.5539 14.9942 22.4527C14.8463 22.4032 14.6653 22.3249 14.5059 22.1984C14.3459 22.0716 14.1393 21.8365 14.1393 21.5C14.1393 21.1635 14.3459 20.9284 14.5059 20.8016C14.6653 20.6751 14.8463 20.5968 14.9942 20.5473ZM19.2294 16.0007C19.4326 15.6657 19.8335 15.2667 20.435 15.2667C21.0364 15.2667 21.4374 15.6657 21.6404 16.0007C21.8522 16.3501 21.9531 16.7735 21.9531 17.1917C21.9531 17.6098 21.8522 18.0332 21.6404 18.3826C21.4374 18.7176 21.0364 19.1167 20.435 19.1167C19.8335 19.1167 19.4326 18.7176 19.2294 18.3826C19.0176 18.0332 18.9169 17.6098 18.9169 17.1917C18.9169 16.7735 19.0176 16.3501 19.2294 16.0007ZM10.359 16.0007C10.5621 15.6657 10.9631 15.2667 11.5645 15.2667C12.166 15.2667 12.5669 15.6657 12.77 16.0007C12.9818 16.3501 13.0826 16.7735 13.0826 17.1917C13.0826 17.6098 12.9818 18.0332 12.77 18.3826C12.5669 18.7176 12.166 19.1167 11.5645 19.1167C10.9631 19.1167 10.5621 18.7176 10.359 18.3826C10.1473 18.0332 10.0464 17.6098 10.0464 17.1917C10.0464 16.7735 10.1473 16.3501 10.359 16.0007Z" fill="#CCFF00"/>
</g>
<defs>
<clipPath id="clip0_558_17">
<rect width="32" height="32" fill="white"/>
</clipPath>
</defs>
</svg>
